<mxfile host="65bd71144e">
    <diagram id="xZc4fDsWBo4OEduQYVHD" name="Page-1">
        <mxGraphModel dx="831" dy="501" grid="1" gridSize="10" guides="1" tooltips="1" connect="1" arrows="1" fold="1" page="1" pageScale="1" pageWidth="850" pageHeight="1100" math="0" shadow="0">
            <root>
                <mxCell id="0"/>
                <mxCell id="1" parent="0"/>
                <mxCell id="3" value="" style="strokeWidth=5;shadow=0;dashed=0;align=center;html=1;shape=mxgraph.mockup.containers.browserWindow;rSize=0;strokeColor=#FE16D0;strokeColor2=#008cff;strokeColor3=#c4c4c4;mainText=,;recursiveResize=0;fillColor=#121212;fontFamily=Inter;fontSource=https%3A%2F%2Ffonts.googleapis.com%2Fcss%3Ffamily%3DInter;" parent="1" vertex="1">
                    <mxGeometry x="50" y="50" width="740" height="680" as="geometry"/>
                </mxCell>
                <mxCell id="4" value="Home" style="strokeWidth=1;shadow=0;dashed=0;align=center;html=1;shape=mxgraph.mockup.containers.anchor;fontSize=17;fontColor=#666666;align=left;" parent="3" vertex="1">
                    <mxGeometry x="60" y="12" width="110" height="26" as="geometry"/>
                </mxCell>
                <mxCell id="5" value="https://www.draw.io" style="strokeWidth=1;shadow=0;dashed=0;align=center;html=1;shape=mxgraph.mockup.containers.anchor;rSize=0;fontSize=17;fontColor=#666666;align=left;" parent="3" vertex="1">
                    <mxGeometry x="130" y="60" width="250" height="26" as="geometry"/>
                </mxCell>
                <mxCell id="35" value="" style="edgeStyle=none;html=1;" parent="3" source="25" target="26" edge="1">
                    <mxGeometry relative="1" as="geometry">
                        <mxPoint x="280" y="480" as="sourcePoint"/>
                    </mxGeometry>
                </mxCell>
                <mxCell id="23" value="&lt;font data-font-src=&quot;https://fonts.googleapis.com/css?family=Poppins&quot; face=&quot;Poppins&quot; style=&quot;color: rgb(255, 255, 255);&quot;&gt;Home&lt;/font&gt;" style="strokeWidth=9;shadow=0;dashed=0;align=center;html=1;shape=mxgraph.mockup.buttons.button;strokeColor=#121212;fontColor=#ffffff;mainText=;buttonStyle=round;fontSize=17;fontStyle=1;fillColor=#121212;whiteSpace=wrap;fontFamily=Oswald;fontSource=https%3A%2F%2Ffonts.googleapis.com%2Fcss%3Ffamily%3DOswald;" parent="3" vertex="1">
                    <mxGeometry x="90" y="130" width="120" height="40" as="geometry"/>
                </mxCell>
                <mxCell id="24" value="" style="strokeColor=#FFFFFF;verticalLabelPosition=bottom;shadow=0;dashed=0;verticalAlign=top;strokeWidth=2;html=1;shape=mxgraph.mockup.misc.copyrightIcon;labelBorderColor=none;fontColor=#333333;fillColor=#121212;" parent="3" vertex="1">
                    <mxGeometry x="70" y="630" width="25" height="25" as="geometry"/>
                </mxCell>
                <mxCell id="26" value="&lt;font data-font-src=&quot;https://fonts.googleapis.com/css?family=Poppins&quot; face=&quot;Poppins&quot;&gt;Gallery&lt;/font&gt;" style="strokeWidth=3;shadow=0;dashed=0;align=center;html=1;shape=mxgraph.mockup.buttons.button;strokeColor=#FFFFFF;fontColor=#ffffff;mainText=;buttonStyle=round;fontSize=17;fontStyle=1;fillColor=#A2FE32;whiteSpace=wrap;labelBorderColor=none;" parent="3" vertex="1">
                    <mxGeometry x="170" y="590" width="150" height="50" as="geometry"/>
                </mxCell>
                <mxCell id="27" value="" style="strokeWidth=9;shadow=0;dashed=0;align=center;html=1;shape=mxgraph.mockup.rrect;rSize=10;fillColor=#F5F5DC;strokeColor=#121212;labelBackgroundColor=#A2FE32;fontFamily=Oswald;fontSource=https%3A%2F%2Ffonts.googleapis.com%2Fcss%3Ffamily%3DOswald;" parent="3" vertex="1">
                    <mxGeometry x="520" y="135" width="50" height="30" as="geometry"/>
                </mxCell>
                <mxCell id="30" value="&lt;font style=&quot;color: rgb(254, 22, 208);&quot; face=&quot;Poppins&quot;&gt;GitHub&lt;/font&gt;" style="strokeWidth=2;shadow=0;dashed=0;align=center;html=1;shape=mxgraph.mockup.leftButton;rSize=10;fontSize=17;fontColor=#F5F5DC;fontStyle=1;fillColor=#121212;strokeColor=#FE16D0;resizeHeight=1;fontFamily=Oswald;fontSource=https%3A%2F%2Ffonts.googleapis.com%2Fcss%3Ffamily%3DOswald;" parent="27" vertex="1">
                    <mxGeometry width="95" height="30" relative="1" as="geometry"/>
                </mxCell>
                <mxCell id="36" value="" style="verticalLabelPosition=bottom;shadow=0;dashed=0;align=center;html=1;verticalAlign=top;strokeWidth=1;shape=mxgraph.mockup.graphics.simpleIcon;strokeColor=#999999;gradientColor=#FE16D0;" parent="3" vertex="1">
                    <mxGeometry x="100" y="280" width="50" height="50" as="geometry"/>
                </mxCell>
                <mxCell id="37" value="" style="verticalLabelPosition=bottom;shadow=0;dashed=0;align=center;html=1;verticalAlign=top;strokeWidth=1;shape=mxgraph.mockup.graphics.simpleIcon;strokeColor=#999999;gradientColor=#A2FE32;" parent="3" vertex="1">
                    <mxGeometry x="100" y="410" width="50" height="50" as="geometry"/>
                </mxCell>
                <mxCell id="38" value="" style="verticalLabelPosition=bottom;shadow=0;dashed=0;align=center;html=1;verticalAlign=top;strokeWidth=1;shape=mxgraph.mockup.graphics.simpleIcon;strokeColor=#999999;gradientColor=#A2FE32;" parent="3" vertex="1">
                    <mxGeometry x="590" y="280" width="50" height="50" as="geometry"/>
                </mxCell>
                <mxCell id="39" value="" style="verticalLabelPosition=bottom;shadow=0;dashed=0;align=center;html=1;verticalAlign=top;strokeWidth=1;shape=mxgraph.mockup.graphics.simpleIcon;strokeColor=#999999;gradientColor=#FE16D0;" parent="3" vertex="1">
                    <mxGeometry x="590" y="410" width="50" height="50" as="geometry"/>
                </mxCell>
                <mxCell id="41" value="&lt;font style=&quot;color: rgb(254, 22, 208);&quot; data-font-src=&quot;https://fonts.googleapis.com/css?family=Poppins&quot; face=&quot;Poppins&quot;&gt;Say Hello&lt;/font&gt;" style="strokeWidth=2;shadow=0;dashed=0;align=center;html=1;shape=mxgraph.mockup.buttons.button;strokeColor=#FE16D0;fontColor=#ffffff;mainText=;buttonStyle=round;fontSize=17;fontStyle=1;fillColor=#121212;whiteSpace=wrap;labelBorderColor=none;" parent="3" vertex="1">
                    <mxGeometry x="420" y="590" width="150" height="50" as="geometry"/>
                </mxCell>
                <mxCell id="60" value="Questions?" style="text;html=1;strokeColor=none;fillColor=none;align=center;verticalAlign=middle;whiteSpace=wrap;rounded=0;labelBorderColor=none;fontColor=#FFFFFF;fontFamily=Oswald;fontSource=https%3A%2F%2Ffonts.googleapis.com%2Fcss%3Ffamily%3DOswald;" parent="3" vertex="1">
                    <mxGeometry x="460" y="540" width="60" height="30" as="geometry"/>
                </mxCell>
                <mxCell id="33" value="&lt;h1 style=&quot;text-align: center; margin-top: 0px;&quot;&gt;&lt;font style=&quot;color: rgb(18, 18, 18);&quot; face=&quot;Oswald&quot; data-font-src=&quot;https://fonts.googleapis.com/css?family=Oswald&quot;&gt;Welcome&lt;/font&gt;&lt;/h1&gt;&lt;p&gt;&lt;font style=&quot;color: rgb(18, 18, 18);&quot; face=&quot;Inter&quot; data-font-src=&quot;https://fonts.googleapis.com/css?family=Inter&quot;&gt;Lorem ipsum dolor sit amet, consectetur adipisicing elit, sed do eiusmod tempor incididunt ut labore et dolore magna aliqua.&lt;/font&gt;&lt;/p&gt;" style="text;html=1;whiteSpace=wrap;overflow=hidden;rounded=0;fontColor=#121212;" parent="3" vertex="1">
                    <mxGeometry x="285" y="235" width="180" height="210" as="geometry"/>
                </mxCell>
                <mxCell id="61" value="" style="edgeStyle=none;html=1;" parent="3" target="25" edge="1">
                    <mxGeometry relative="1" as="geometry">
                        <mxPoint x="300" y="530" as="sourcePoint"/>
                        <mxPoint x="308" y="640" as="targetPoint"/>
                    </mxGeometry>
                </mxCell>
                <mxCell id="25" value="View my Work" style="text;html=1;strokeColor=none;fillColor=none;align=center;verticalAlign=middle;whiteSpace=wrap;rounded=0;labelBorderColor=none;fontColor=#FFFFFF;fontFamily=Oswald;fontSource=https%3A%2F%2Ffonts.googleapis.com%2Fcss%3Ffamily%3DOswald;" parent="3" vertex="1">
                    <mxGeometry x="215" y="540" width="60" height="30" as="geometry"/>
                </mxCell>
                <mxCell id="62" value="" style="verticalLabelPosition=bottom;shadow=0;dashed=0;align=center;html=1;verticalAlign=top;strokeWidth=1;shape=mxgraph.mockup.graphics.simpleIcon;strokeColor=#999999;gradientColor=#FE16D0;" parent="3" vertex="1">
                    <mxGeometry x="260" y="440" width="50" height="50" as="geometry"/>
                </mxCell>
                <mxCell id="63" value="" style="verticalLabelPosition=bottom;shadow=0;dashed=0;align=center;html=1;verticalAlign=top;strokeWidth=1;shape=mxgraph.mockup.graphics.simpleIcon;strokeColor=#999999;gradientColor=#A2FE32;" parent="3" vertex="1">
                    <mxGeometry x="430" y="440" width="50" height="50" as="geometry"/>
                </mxCell>
                <mxCell id="64" value="" style="strokeWidth=9;shadow=0;dashed=0;align=center;html=1;shape=mxgraph.mockup.rrect;rSize=10;fillColor=#F5F5DC;strokeColor=#121212;labelBackgroundColor=#A2FE32;fontFamily=Oswald;fontSource=https%3A%2F%2Ffonts.googleapis.com%2Fcss%3Ffamily%3DOswald;" parent="3" vertex="1">
                    <mxGeometry x="620" y="135" width="50" height="30" as="geometry"/>
                </mxCell>
                <mxCell id="65" value="&lt;font style=&quot;color: rgb(18, 18, 18);&quot; face=&quot;Poppins&quot;&gt;LinkedIn&lt;/font&gt;" style="strokeWidth=2;shadow=0;dashed=0;align=center;html=1;shape=mxgraph.mockup.leftButton;rSize=10;fontSize=17;fontColor=#F5F5DC;fontStyle=1;fillColor=#A2FE32;strokeColor=#FFFFFF;resizeHeight=1;fontFamily=Oswald;fontSource=https%3A%2F%2Ffonts.googleapis.com%2Fcss%3Ffamily%3DOswald;" parent="64" vertex="1">
                    <mxGeometry width="95" height="30" relative="1" as="geometry"/>
                </mxCell>
                <mxCell id="69" value="" style="edgeStyle=none;html=1;" parent="3" source="68" target="36" edge="1">
                    <mxGeometry relative="1" as="geometry"/>
                </mxCell>
                <mxCell id="68" value="" style="line;strokeWidth=2;html=1;fontColor=#FE16D0;strokeColor=#FE16D0;" parent="3" vertex="1">
                    <mxGeometry x="100" y="150" width="100" height="30" as="geometry"/>
                </mxCell>
                <mxCell id="73" value="&lt;font face=&quot;Poppins&quot; style=&quot;color: rgb(255, 255, 255);&quot;&gt;About&lt;/font&gt;" style="text;html=1;align=center;verticalAlign=middle;whiteSpace=wrap;rounded=0;" parent="3" vertex="1">
                    <mxGeometry x="225" y="135" width="60" height="30" as="geometry"/>
                </mxCell>
                <mxCell id="74" value="&lt;font data-font-src=&quot;https://fonts.googleapis.com/css?family=Poppins&quot; face=&quot;Poppins&quot; style=&quot;color: rgb(255, 255, 255);&quot;&gt;Contact&lt;/font&gt;&lt;div&gt;&lt;font style=&quot;color: rgb(255, 255, 255);&quot;&gt;&lt;br&gt;&lt;/font&gt;&lt;/div&gt;" style="text;html=1;align=center;verticalAlign=middle;whiteSpace=wrap;rounded=0;" parent="3" vertex="1">
                    <mxGeometry x="300" y="140" width="60" height="30" as="geometry"/>
                </mxCell>
                <mxCell id="77" value="&lt;h1&gt;&lt;font face=&quot;Oswald&quot; style=&quot;color: rgb(255, 255, 255);&quot;&gt;Welcome&lt;/font&gt;&lt;/h1&gt;" style="text;strokeColor=none;fillColor=none;html=1;fontSize=24;fontStyle=1;verticalAlign=middle;align=center;" vertex="1" parent="3">
                    <mxGeometry x="320" y="250" width="100" height="40" as="geometry"/>
                </mxCell>
                <mxCell id="78" value="&lt;h2&gt;&lt;font face=&quot;Oswald&quot; style=&quot;color: rgb(255, 255, 255);&quot;&gt;My name is &lt;/font&gt;&lt;font face=&quot;Oswald&quot; style=&quot;color: rgb(254, 22, 208);&quot;&gt;Trey&lt;/font&gt;&lt;font face=&quot;Oswald&quot; style=&quot;color: rgb(255, 255, 255);&quot;&gt; and I&#39;m a Web Developer&lt;/font&gt;&lt;/h2&gt;" style="text;html=1;align=center;verticalAlign=middle;whiteSpace=wrap;rounded=0;" vertex="1" parent="3">
                    <mxGeometry x="282.5" y="310" width="175" height="70" as="geometry"/>
                </mxCell>
                <mxCell id="79" value="" style="line;strokeWidth=2;html=1;fontColor=#FE16D0;strokeColor=#FE16D0;" vertex="1" parent="3">
                    <mxGeometry x="280" y="290" width="180" height="30" as="geometry"/>
                </mxCell>
                <mxCell id="75" value="&lt;font style=&quot;color: rgb(18, 18, 18);&quot;&gt;&lt;b&gt;Graphics&lt;/b&gt;&amp;nbsp;&lt;br&gt;- Palm Trees&lt;br&gt;- Speakers&lt;/font&gt;&lt;div&gt;&lt;font style=&quot;color: rgb(18, 18, 18);&quot;&gt;-Lazers&lt;/font&gt;&lt;/div&gt;&lt;div&gt;&lt;font style=&quot;color: rgb(18, 18, 18);&quot;&gt;- Grids&lt;/font&gt;&lt;/div&gt;&lt;div&gt;&lt;font style=&quot;color: rgb(18, 18, 18);&quot;&gt;-Spectrum Analyzers&lt;/font&gt;&lt;/div&gt;" style="strokeWidth=1;shadow=0;dashed=0;align=center;html=1;shape=mxgraph.mockup.text.stickyNote2;fontColor=#666666;mainText=;fontSize=17;whiteSpace=wrap;fillColor=#ffffcc;strokeColor=#F62E00;" parent="1" vertex="1">
                    <mxGeometry x="90" y="780" width="220" height="160" as="geometry"/>
                </mxCell>
                <mxCell id="76" value="&lt;font style=&quot;color: rgb(18, 18, 18);&quot;&gt;&lt;b&gt;Effects&lt;/b&gt;&amp;nbsp;&lt;br&gt;- Button Hover (contrast colors)&lt;br&gt;- Click animation&lt;/font&gt;&lt;div&gt;&lt;font style=&quot;color: rgb(18, 18, 18);&quot;&gt;- Graphics Animation&lt;/font&gt;&lt;/div&gt;" style="strokeWidth=1;shadow=0;dashed=0;align=center;html=1;shape=mxgraph.mockup.text.stickyNote2;fontColor=#666666;mainText=;fontSize=17;whiteSpace=wrap;fillColor=#ffffcc;strokeColor=#F62E00;" parent="1" vertex="1">
                    <mxGeometry x="370" y="780" width="340" height="110" as="geometry"/>
                </mxCell>
            </root>
        </mxGraphModel>
    </diagram>
</mxfile>